HIERARCHY
ROOT hip
{
	OFFSET	0.00  0.00  0.00 
	CHANNELS 6 Xposition Yposition Zposition Xrotation Zrotation Yrotation
	JOINT abdomen
	{
		OFFSET	0.000000 1.799998 0.000000
		CHANNELS 3 Xrotation Zrotation Yrotation
		JOINT chest
		{
			OFFSET	0.000000 4.464001 -0.360000
			CHANNELS 3 Xrotation Zrotation Yrotation
			JOINT neck
			{
				OFFSET	0.000000 5.400002 -0.144000
				CHANNELS 3 Xrotation Zrotation Yrotation
				JOINT head
				{
					OFFSET	0.000000 1.655998 0.000000
					CHANNELS 3 Xrotation Zrotation Yrotation
					End Site
					{
						OFFSET 0.000000 1.656000 0.000000
					}
				}
			}
			JOINT lCollar
			{
				OFFSET	1.800000 3.528000 -0.432000
				CHANNELS 3 Yrotation Zrotation Xrotation
				JOINT lShldr
				{
					OFFSET	1.728000 0.000000 0.000000
					CHANNELS 3 Zrotation Yrotation Xrotation
					JOINT lForeArm
					{
						OFFSET	5.328000 0.000000 0.000000
						CHANNELS 3 Yrotation Zrotation Xrotation
						JOINT lHand
						{
							OFFSET	4.464000 0.000000 0.000000
							CHANNELS 3 Zrotation Yrotation Xrotation
						}
					}
				}
			}
			JOINT rCollar
			{
				OFFSET	-1.872000 3.528000 -0.432000
				CHANNELS 3 Yrotation Zrotation Xrotation
				JOINT rShldr
				{
					OFFSET	-1.656000 0.000000 0.000000
					CHANNELS 3 Zrotation Yrotation Xrotation
					JOINT rForeArm
					{
						OFFSET	-5.400000 0.000000 0.000000
						CHANNELS 3 Yrotation Zrotation Xrotation
						JOINT rHand
						{
							OFFSET	-4.392000 0.000000 0.000000
							CHANNELS 3 Zrotation Yrotation Xrotation
						}
					}
				}
			}
		}
	}
	JOINT lThigh
	{
		OFFSET	2.808000 -0.864002 0.720000
		CHANNELS 3 Xrotation Zrotation Yrotation
		JOINT lShin
		{
			OFFSET	-1.080000 -10.583999 0.000000
			CHANNELS 3 Xrotation Zrotation Yrotation
			JOINT lFoot
			{
				OFFSET	0.000000 -10.152000 -0.648000
				CHANNELS 3 Xrotation Yrotation Zrotation
				End Site
				{
					OFFSET 0.000000 -1.296000 2.448000
				}
			}
		}
	}
	JOINT rThigh
	{
		OFFSET	-2.808000 -0.864002 0.720000
		CHANNELS 3 Xrotation Zrotation Yrotation
		JOINT rShin
		{
			OFFSET	1.080000 -10.583999 0.000000
			CHANNELS 3 Xrotation Zrotation Yrotation
			JOINT rFoot
			{
				OFFSET	0.000000 -10.152000 -0.648000
				CHANNELS 3 Xrotation Yrotation Zrotation
				End Site
				{
					OFFSET 0.000000 -1.296000 2.448000
				}
			}
		}
	}
}
MOTION
Frames:     16
Frame Time: 0.033333
0.000000 23.151886 0.000000 0.000000 0.000000 0.000000 0.000000 0.000000 0.000000 0.000000 0.000000 0.000000 0.000000 0.000000 0.000000 0.000000 0.000000 0.000000 0.000000 0.000000 0.000000 0.000000 0.000000 0.000000 0.000000 0.000000 0.000000 0.000000 0.000000 0.000000 9.990234 0.000000 0.000000 0.000000 0.000000 0.000000 0.000000 0.000000 0.000000 0.000000 0.000000 0.000000 0.000000 0.000000 0.000000 0.009766 0.000000 0.000000 -0.273438 0.000000 0.000000 0.000000 -0.058594 0.000000 0.020493 0.032569 -0.011854 0.497961 0.003586 0.012903 
-4.125600 16.056002 0.828000 -15.676213 10.425452 38.471649 32.188152 5.177296 -11.315346 11.863497 4.286238 -5.215017 4.246400 2.016000 57.807400 6.454200 -20.752001 -1.757800 -7.319789 -12.437545 2.063097 28.377199 -33.754601 4.535801 -18.586040 49.805298 -43.539085 -25.545967 8.149303 15.676386 23.696802 -8.269376 8.368052 -10.690700 1.955700 14.383100 78.977180 -56.975998 -18.527334 3.593100 8.085600 12.107500 -44.795620 3.797294 -1.002732 78.552444 12.857452 5.454773 -19.001284 -0.899642 -15.885999 -30.727119 -33.620178 24.088318 90.363258 43.321926 42.454285 -55.172039 -52.874672 -34.694916 
-4.125600 16.056002 0.828000 -15.676213 10.425452 38.471649 32.188152 5.177296 -11.315346 11.863497 4.286238 -5.215017 4.246400 2.016000 57.807400 6.454200 -20.752001 -1.757800 -7.319789 -12.437545 2.063097 28.377199 -33.754601 4.535801 -18.586040 49.805298 -43.539085 -25.545967 8.149303 15.676386 23.696802 -8.269376 8.368052 -10.690700 1.955700 14.383100 78.977180 -56.975998 -18.527334 3.593100 8.085600 12.107500 -44.795620 3.797294 -1.002732 78.552444 12.857452 5.454773 -19.001284 -0.899642 -15.885999 -30.727119 -33.620178 24.088318 90.363258 43.321926 42.454285 -55.172039 -52.874672 -34.694916 
-4.125600 16.056002 0.828000 -15.676213 10.425452 38.471649 32.188152 5.177296 -11.315346 11.863497 4.286238 -5.215017 4.246400 2.016000 57.807400 6.454200 -20.752001 -1.757800 -7.319789 -12.437545 2.063097 28.377199 -33.754601 4.535801 -18.586040 49.805298 -43.539085 -25.545967 8.149303 15.676386 23.696802 -8.269376 8.368052 -10.690700 1.955700 14.383100 78.977180 -56.975998 -18.527334 3.593100 8.085600 12.107500 -44.795620 3.797294 -1.002732 78.552444 12.857452 5.454773 -19.001284 -0.899642 -15.885999 -30.727119 -33.620178 24.088318 90.363258 43.321926 42.454285 -55.172039 -52.874672 -34.694916 
-4.125600 16.056002 0.828000 -15.676213 10.425452 38.471649 32.188152 5.177296 -11.315346 11.863497 4.286238 -5.215017 4.246400 2.016000 57.807400 6.454200 -20.752001 -1.757800 -7.319789 -12.437545 2.063097 28.377199 -33.754601 4.535801 -18.586040 49.805298 -43.539085 -25.545967 8.149303 15.676386 23.696802 -8.269376 8.368052 -10.690700 1.955700 14.383100 78.977180 -56.975998 -18.527334 3.593100 8.085600 12.107500 -44.795620 3.797294 -1.002732 78.552444 12.857452 5.454773 -19.001284 -0.899642 -15.885999 -30.727119 -33.620178 24.088318 90.363258 43.321926 42.454285 -55.172039 -52.874672 -34.694916 
-4.125600 16.056002 0.828000 -15.676213 10.425452 38.471649 32.188152 5.177296 -11.315346 11.863497 4.286238 -5.215017 4.246400 2.016000 57.807400 6.454200 -20.752001 -1.757800 -7.319789 -12.437545 2.063097 28.377199 -33.754601 4.535801 -18.586040 49.805298 -43.539085 -25.545967 8.149303 15.676386 23.696802 -8.269376 8.368052 -10.690700 1.955700 14.383100 78.977180 -56.975998 -18.527334 3.593100 8.085600 12.107500 -44.795620 3.797294 -1.002732 78.552444 12.857452 5.454773 -19.001284 -0.899642 -15.885999 -30.727119 -33.620178 24.088318 90.363258 43.321926 42.454285 -55.172039 -52.874672 -34.694916 
-4.125600 16.056002 0.828000 -15.676213 10.425452 38.471649 32.188152 5.177296 -11.315346 11.863497 4.286238 -5.215017 4.246400 2.016000 57.807400 6.454200 -20.752001 -1.757800 -7.319789 -12.437545 2.063097 28.377199 -33.754601 4.535801 -18.586040 49.805298 -43.539085 -25.545967 8.149303 15.676386 23.696802 -8.269376 8.368052 -10.690700 1.955700 14.383100 78.977180 -56.975998 -18.527334 3.593100 8.085600 12.107500 -44.795620 3.797294 -1.002732 78.552444 12.857452 5.454773 -19.001284 -0.899642 -15.885999 -30.727119 -33.620178 24.088318 90.363258 43.321926 42.454285 -55.172039 -52.874672 -34.694916 
-4.125600 16.056002 0.828000 -15.676213 10.425452 38.471649 32.188152 5.177296 -11.315346 11.863497 4.286238 -5.215017 4.246400 2.016000 57.807400 6.454200 -20.752001 -1.757800 -7.319789 -12.437545 2.063097 28.377199 -33.754601 4.535801 -18.586040 49.805298 -43.539085 -25.545967 8.149303 15.676386 23.696802 -8.269376 8.368052 -10.690700 1.955700 14.383100 78.977180 -56.975998 -18.527334 3.593100 8.085600 12.107500 -44.795620 3.797294 -1.002732 78.552444 12.857452 5.454773 -19.001284 -0.899642 -15.885999 -30.727119 -33.620178 24.088318 90.363258 43.321926 42.454285 -55.172039 -52.874672 -34.694916 
-4.125600 16.056002 0.828000 -15.676213 10.425452 38.471649 32.188152 5.177296 -11.315346 11.863497 4.286238 -5.215017 4.246400 2.016000 57.807400 6.454200 -20.752001 -1.757800 -7.319789 -12.437545 2.063097 28.377199 -33.754601 4.535801 -18.586040 49.805298 -43.539085 -25.545967 8.149303 15.676386 23.696802 -8.269376 8.368052 -10.690700 1.955700 14.383100 78.977180 -56.975998 -18.527334 3.593100 8.085600 12.107500 -44.795620 3.797294 -1.002732 78.552444 12.857452 5.454773 -19.001284 -0.899642 -15.885999 -30.727119 -33.620178 24.088318 90.363258 43.321926 42.454285 -55.172039 -52.874672 -34.694916 
-4.125600 16.056002 0.828000 -15.676213 10.425452 38.471649 32.188152 5.177296 -11.315346 11.863497 4.286238 -5.215017 4.246400 2.016000 57.807400 6.454200 -20.752001 -1.757800 -7.319789 -12.437545 2.063097 28.377199 -33.754601 4.535801 -18.586040 49.805298 -43.539085 -25.545967 8.149303 15.676386 23.696802 -8.269376 8.368052 -10.690700 1.955700 14.383100 78.977180 -56.975998 -18.527334 3.593100 8.085600 12.107500 -44.795620 3.797294 -1.002732 78.552444 12.857452 5.454773 -19.001284 -0.899642 -15.885999 -30.727119 -33.620178 24.088318 90.363258 43.321926 42.454285 -55.172039 -52.874672 -34.694916 
-4.125600 16.056002 0.828000 -15.676213 10.425452 38.471649 32.188152 5.177296 -11.315346 11.863497 4.286238 -5.215017 4.246400 2.016000 57.807400 6.454200 -20.752001 -1.757800 -7.319789 -12.437545 2.063097 28.377199 -33.754601 4.535801 -18.586040 49.805298 -43.539085 -25.545967 8.149303 15.676386 23.696802 -8.269376 8.368052 -10.690700 1.955700 14.383100 78.977180 -56.975998 -18.527334 3.593100 8.085600 12.107500 -44.795620 3.797294 -1.002732 78.552444 12.857452 5.454773 -19.001284 -0.899642 -15.885999 -30.727119 -33.620178 24.088318 90.363258 43.321926 42.454285 -55.172039 -52.874672 -34.694916 
-4.125600 16.056002 0.828000 -15.676213 10.425452 38.471649 32.188152 5.177296 -11.315346 11.863497 4.286238 -5.215017 4.246400 2.016000 57.807400 6.454200 -20.752001 -1.757800 -7.319789 -12.437545 2.063097 28.377199 -33.754601 4.535801 -18.586040 49.805298 -43.539085 -25.545967 8.149303 15.676386 23.696802 -8.269376 8.368052 -10.690700 1.955700 14.383100 78.977180 -56.975998 -18.527334 3.593100 8.085600 12.107500 -44.795620 3.797294 -1.002732 78.552444 12.857452 5.454773 -19.001284 -0.899642 -15.885999 -30.727119 -33.620178 24.088318 90.363258 43.321926 42.454285 -55.172039 -52.874672 -34.694916 
-4.125600 16.056002 0.828000 -15.676213 10.425452 38.471649 32.188152 5.177296 -11.315346 11.863497 4.286238 -5.215017 4.246400 2.016000 57.807400 6.454200 -20.752001 -1.757800 -7.319789 -12.437545 2.063097 28.377199 -33.754601 4.535801 -18.586040 49.805298 -43.539085 -25.545967 8.149303 15.676386 23.696802 -8.269376 8.368052 -10.690700 1.955700 14.383100 78.977180 -56.975998 -18.527334 3.593100 8.085600 12.107500 -44.795620 3.797294 -1.002732 78.552444 12.857452 5.454773 -19.001284 -0.899642 -15.885999 -30.727119 -33.620178 24.088318 90.363258 43.321926 42.454285 -55.172039 -52.874672 -34.694916 
-4.125600 16.056002 0.828000 -15.676213 10.425452 38.471649 32.188152 5.177296 -11.315346 11.863497 4.286238 -5.215017 4.246400 2.016000 57.807400 6.454200 -20.752001 -1.757800 -7.319789 -12.437545 2.063097 28.377199 -33.754601 4.535801 -18.586040 49.805298 -43.539085 -25.545967 8.149303 15.676386 23.696802 -8.269376 8.368052 -10.690700 1.955700 14.383100 78.977180 -56.975998 -18.527334 3.593100 8.085600 12.107500 -44.795620 3.797294 -1.002732 78.552444 12.857452 5.454773 -19.001284 -0.899642 -15.885999 -30.727119 -33.620178 24.088318 90.363258 43.321926 42.454285 -55.172039 -52.874672 -34.694916 
-4.125600 16.056002 0.828000 -15.676213 10.425452 38.471649 32.188152 5.177296 -11.315346 11.863497 4.286238 -5.215017 4.246400 2.016000 57.807400 6.454200 -20.752001 -1.757800 -7.319789 -12.437545 2.063097 28.377199 -33.754601 4.535801 -18.586040 49.805298 -43.539085 -25.545967 8.149303 15.676386 23.696802 -8.269376 8.368052 -10.690700 1.955700 14.383100 78.977180 -56.975998 -18.527334 3.593100 8.085600 12.107500 -44.795620 3.797294 -1.002732 78.552444 12.857452 5.454773 -19.001284 -0.899642 -15.885999 -30.727119 -33.620178 24.088318 90.363258 43.321926 42.454285 -55.172039 -52.874672 -34.694916 
-4.125600 16.056002 0.828000 -15.676213 10.425452 38.471649 32.188152 5.177296 -11.315346 11.863497 4.286238 -5.215017 4.246400 2.016000 57.807400 6.454200 -20.752001 -1.757800 -7.319789 -12.437545 2.063097 28.377199 -33.754601 4.535801 -18.586040 49.805298 -43.539085 -25.545967 8.149303 15.676386 23.696802 -8.269376 8.368052 -10.690700 1.955700 14.383100 78.977180 -56.975998 -18.527334 3.593100 8.085600 12.107500 -44.795620 3.797294 -1.002732 78.552444 12.857452 5.454773 -19.001284 -0.899642 -15.885999 -30.727119 -33.620178 24.088318 90.363258 43.321926 42.454285 -55.172039 -52.874672 -34.694916 
